<svg id="Layer_1" data-name="Layer 1" xmlns="http://www.w3.org/2000/svg" viewBox="0 0 920 920"><defs><style>.cls-1{fill:#fff;}</style></defs><title>riot_logo</title><path class="cls-1" d="M499,40.3C243.46,41.17,39.06,246.61,39.69,501.94c.62,253.73,206.74,459,460.2,458.36,255.12-.67,460.8-207.14,459.8-461.56C958.69,245.31,751.81,39.44,499,40.3ZM687.14,669c-2.85,23.5-5.08,47.08-7.19,70.66-.78,8.68-3.54,12.09-13.05,9.66C611,735.09,555,721.51,499.16,707.08c-5-1.29-10.61-6.21-12.74-10.9-7.19-15.87-12.94-32.39-20.21-51.15,6.54-.37,10.24-.93,13.9-.74,64.83,3.33,129.65,6.94,194.5,10C685.4,654.74,688.39,658.71,687.14,669Zm36.08-363.5q-15.51,148.9-30,297.91c-.91,9.33-4.3,12.65-13.42,12.51-23-.37-45.9-.44-68.84,0-9.75.2-13.38-3.42-14-13.17-4.68-68.67-9.81-137.31-14.85-206-.29-3.92-1-7.81-1.51-11.71l-4.12-.45c-1.07,4.22-2.79,8.4-3.09,12.67-4.92,67.9-9.92,135.79-14.18,203.73-.71,11.33-4.23,15.59-15.7,15-14.87-.82-29.82-.51-44.73-.1-8.76.24-12.77-2.62-14.29-11.93-9.06-55.47-18.75-110.84-28.33-166.22-.79-4.56-2.3-9-3.48-13.5l-4.34.31c-.46,4.67-1.36,9.35-1.31,14,.62,53.92,1.41,107.85,2.08,161.78.19,14.94-.27,15.34-15.43,15.42-13.39.07-26.78-.34-40.15.13-8.76.31-12.93-2.86-14.94-11.73-10-44-20.54-87.86-31-131.75-1.16-4.88-2.93-9.61-4.41-14.41l-4.24.24c-.41,4.37-1.41,8.78-1.13,13.11,2.82,43.5,5.62,87,9,130.47.81,10.43-2,14.72-13,14.13-13.73-.74-27.53-.43-41.29-.12-7.47.17-11-3-12.54-10.19q-21.57-100.37-43.64-200.62c-1.73-7.86.8-11.81,7.89-15.15,96.55-45.43,192.93-91.19,289.57-136.42,5.64-2.64,13.48-3.19,19.6-1.76,52.88,12.34,105.56,25.51,158.39,38.05C720.87,291.94,724.26,295.54,723.22,305.51Z" transform="translate(-39.69 -40.3)"/></svg>