<?xml version="1.0" encoding="utf-8"?>
<!-- Generator: Adobe Illustrator 24.0.1, SVG Export Plug-In . SVG Version: 6.00 Build 0)  -->
<svg version="1.1" id="Layer_1" xmlns="http://www.w3.org/2000/svg" xmlns:xlink="http://www.w3.org/1999/xlink" x="0px" y="0px"
	 viewBox="0 0 1000 1000" style="enable-background:new 0 0 1000 1000;" xml:space="preserve">
<g>
	<path d="M123.77,327.03c0-47.86,0-95.72,0-143.58c0-1.53-0.02-3.06,0.07-4.58c0.12-2.03,1.24-3.42,3.1-4.16
		c1.92-0.76,3.64-0.27,5.03,1.16c1.06,1.1,1.98,2.32,2.94,3.52c78.99,98.73,157.97,197.47,236.95,296.21
		c81.37,101.72,162.74,203.44,244.11,305.16c1.34,1.67,2.77,3.28,3.97,5.04c2.69,3.94,0.81,7.65-3.96,7.94
		c-1.07,0.06-2.14,0.02-3.21,0.02c-75.07,0-150.14-0.07-225.22,0.09c-8.71,0.02-15.08-3.11-20.48-9.87
		c-78.99-98.92-158.08-197.77-237.22-296.58c-4.23-5.28-6.18-10.94-6.16-17.7C123.83,422.14,123.77,374.58,123.77,327.03z"/>
	<path d="M877.82,326.89c0,47.7-0.05,95.4,0.06,143.1c0.01,6.6-1.91,12.13-6.05,17.27c-23.39,29.05-46.72,58.15-69.88,87.39
		c-5.39,6.8-11.87,9.82-20.54,9.8c-75.06-0.14-150.12-0.08-225.18-0.08c-1.07,0-2.14,0.05-3.21-0.03c-4.74-0.35-6.49-4.07-3.8-8.08
		c0.51-0.76,1.13-1.45,1.7-2.16C656.44,442.2,761.96,310.29,867.47,178.39c0.57-0.72,1.13-1.45,1.74-2.13
		c1.45-1.61,3.21-2.35,5.34-1.58c2.08,0.75,3.18,2.31,3.24,4.53c0.04,1.37,0.03,2.75,0.03,4.13
		C877.82,231.18,877.82,279.03,877.82,326.89z"/>
</g>
</svg>
